<?xml version="1.0" encoding="UTF-8" standalone="no"?>
<!-- Created with Inkscape (http://www.inkscape.org/) -->

<svg
   width="100mm"
   height="100mm"
   viewBox="0 0 99.999999 100"
   version="1.1"
   id="svg5"
   xmlns:xlink="http://www.w3.org/1999/xlink"
   xmlns="http://www.w3.org/2000/svg"
   xmlns:svg="http://www.w3.org/2000/svg">
  <defs
     id="defs2">
    <linearGradient
       id="linearGradient6494">
      <stop
         style="stop-color:#000000;stop-opacity:1;"
         offset="0"
         id="stop6492" />
    </linearGradient>
    <linearGradient
       id="linearGradient3642">
      <stop
         style="stop-color:#ffce00;stop-opacity:1;"
         offset="0"
         id="stop3640" />
    </linearGradient>
    <linearGradient
       id="linearGradient3514">
      <stop
         style="stop-color:#000000;stop-opacity:1;"
         offset="0"
         id="stop3512" />
    </linearGradient>
    <clipPath
       clipPathUnits="userSpaceOnUse"
       id="clipPath34930">
      <use
         x="0"
         y="0"
         xlink:href="#g34926"
         id="use34932" />
    </clipPath>
  </defs>
  <g
     aria-label="C"
     transform="matrix(1.2932735,0,0,0.77323164,5.9349497,-0.30995267)"
     id="text755"
     style="font-weight:bold;font-size:89.0785px;font-family:'Noto Sans Mono CJK TC';-inkscape-font-specification:'Noto Sans Mono CJK TC Bold';display:inline;fill:#0000ff;fill-opacity:1;stroke:#ffffff;stroke-width:5;stroke-dasharray:none;stroke-opacity:1">
    <g
       id="g29003"
       style="stroke:#ffffff;stroke-opacity:1">
      <g
         id="g34928"
         clip-path="url(#clipPath34930)"
         style="fill:#ce5c00;fill-opacity:1">
        <g
           id="g34926"
           style="fill:#ce5c00;fill-opacity:1">
          <path
             id="path10400"
             style="display:inline;fill:#ce5c00;fill-opacity:1;stroke:#ffffff;stroke-width:5;stroke-dasharray:none;stroke-opacity:1"
             d="m 41.484311,6.7852917 c -2.187411,0 -6.555655,3.6538333 -15.29187,10.9617453 -8.141928,7.11684 -14.79639,12.939964 -14.796393,12.939966 V 17.747037 c 0,-7.455544 -13.7834612,-7.455545 -13.7834612,0 V 57.46248 97.110422 c 0,6.618498 13.7834612,6.618468 13.7834612,-0.844754 V 83.333723 c 0,0 6.66692,6.66408 14.879505,13.776699 17.389184,13.640638 17.38917,13.640638 17.41603,0 v -6.635057 c -0.009,0.0015 5.166151,-2e-6 -0.02677,0.0053 l 1.1e-5,-2e-6 v 0 l 0.02676,-0.0053 c 0,0 9.129937,-3.323593 12.648658,-7.632231 L 48.857734,74.91488 c -2.048803,2.850509 -4.454214,4.454337 -7.393801,4.454337 -6.235489,0 -11.580185,-5.434337 -11.580185,-22.359234 0,-16.568585 5.612139,-23.249434 10.956842,-23.249434 3.117745,0 5.077336,1.603736 7.304296,4.18701 l 7.482907,-8.195579 c -2.934277,-3.227704 -11.93621,-6.998668 -11.93621,-6.998622 v -4.6e-5 -5.006275 C 43.678153,10.439125 43.671723,6.7852917 41.484311,6.7852917 Z m 2.166915,83.6980923 c 0,0 0.0136,-0.0027 0,0 z" />
        </g>
      </g>
    </g>
  </g>
</svg>
