<?xml version="1.0" encoding="UTF-8" standalone="no"?>
<!-- Created with Inkscape (http://www.inkscape.org/) -->

<svg
   width="63.244873mm"
   height="87.544327mm"
   viewBox="0 0 63.244873 87.54433"
   version="1.1"
   id="svg5"
   sodipodi:docname="ck-logo-mask.svg"
   inkscape:export-filename="ck-logo-wit.svg"
   inkscape:export-xdpi="96"
   inkscape:export-ydpi="96"
   inkscape:version="1.2.2 (b0a8486541, 2022-12-01)"
   xmlns:inkscape="http://www.inkscape.org/namespaces/inkscape"
   xmlns:sodipodi="http://sodipodi.sourceforge.net/DTD/sodipodi-0.dtd"
   xmlns="http://www.w3.org/2000/svg"
   xmlns:svg="http://www.w3.org/2000/svg">
  <sodipodi:namedview
     id="namedview8"
     pagecolor="#ffffff"
     bordercolor="#000000"
     borderopacity="0.25"
     inkscape:showpageshadow="2"
     inkscape:pageopacity="0.0"
     inkscape:pagecheckerboard="0"
     inkscape:deskcolor="#d1d1d1"
     inkscape:document-units="mm"
     showgrid="false"
     inkscape:zoom="2.0173975"
     inkscape:cx="261.72334"
     inkscape:cy="198.02741"
     inkscape:window-width="1878"
     inkscape:window-height="1051"
     inkscape:window-x="0"
     inkscape:window-y="0"
     inkscape:window-maximized="1"
     inkscape:current-layer="layer1" />
  <defs
     id="defs2">
    <clipPath
       clipPathUnits="userSpaceOnUse"
       id="clipPath15679-1">
      <path
         style="display:inline;fill:#002b22;fill-opacity:1;stroke-width:0.264583"
         d="M 91.333008,106.18907 V 87.364935 c 0,-6.159193 0,-6.159193 -10.317631,-6.159193 -10.81962,0 -10.81962,0 -10.81962,6.159193 v 12.617387 24.816168 25.17499 12.35326 c 0,6.30373 0,6.42333 10.81962,6.42333 10.317631,0 10.317631,-0.1196 10.317631,-6.42333 v -18.7477 c 0,0 20.513402,12.59543 36.671982,21.86574 5.43564,3.18569 5.43564,-3.03332 5.43564,-3.03332 v -12.43798 c 0,-6.45819 0,-6.45819 -5.43564,-6.45819 -36.671982,0.0637 -36.671982,-37.32622 0,-37.32622 5.43564,0 5.43564,0 5.43564,-6.206748 v -12.55758 c 0,0 -1e-5,-6.219 -5.6405,-3.099756 -16.09739,9.460037 -36.467122,21.864084 -36.467122,21.864084 z"
         id="path15681-2"
         mask="none" />
    </clipPath>
  </defs>
  <g
     id="layer1"
     transform="translate(-70.195756,-81.205742)"
     style="fill:#0000ff">
    <rect
       style="display:inline;mix-blend-mode:normal;fill:#93a7ac;fill-opacity:1;fill-rule:evenodd;stroke-width:0.262519"
       id="rect6060-7"
       width="121.52991"
       height="149.6147"
       x="35.544991"
       y="50.170555"
       ry="12.31842"
       mask="none"
       clip-path="url(#clipPath15679-1)" />
    <text
       xml:space="preserve"
       style="font-style:normal;font-variant:normal;font-weight:bold;font-stretch:normal;font-size:87.9239px;font-family:'Noto Sans Mono CJK TC';-inkscape-font-specification:'Noto Sans Mono CJK TC Bold';fill:#782144;stroke-width:0.915873"
       x="66.432327"
       y="205.96648"
       id="text755"
       transform="scale(1.3866671,0.72115363)"><tspan
         sodipodi:role="line"
         id="tspan753"
         style="font-style:normal;font-variant:normal;font-weight:bold;font-stretch:normal;font-size:87.9239px;font-family:'Noto Sans Mono CJK TC';-inkscape-font-specification:'Noto Sans Mono CJK TC Bold';stroke-width:0.915873;fill:#782144"
         x="66.432327"
         y="205.96648">C</tspan></text>
    <rect
       style="fill:#93a7ac;fill-rule:evenodd;stroke-width:0.264583"
       id="rect1062"
       width="20.984131"
       height="87.544327"
       x="70.195755"
       y="81.205742"
       ry="3.5689974" />
  </g>
  <g
     inkscape:groupmode="layer"
     id="layer2"
     inkscape:label="Layer 1" />
</svg>
