<?xml version="1.0" encoding="UTF-8" standalone="no"?>
<!-- Created with Inkscape (http://www.inkscape.org/) -->

<svg
   width="75.955986mm"
   height="82.752464mm"
   viewBox="0 0 75.955986 82.752464"
   version="1.1"
   id="svg5"
   xmlns="http://www.w3.org/2000/svg"
   xmlns:svg="http://www.w3.org/2000/svg">
  <defs
     id="defs2">
    <linearGradient
       id="linearGradient6494">
      <stop
         style="stop-color:#000000;stop-opacity:1;"
         offset="0"
         id="stop6492" />
    </linearGradient>
    <linearGradient
       id="linearGradient3642">
      <stop
         style="stop-color:#ffce00;stop-opacity:1;"
         offset="0"
         id="stop3640" />
    </linearGradient>
    <linearGradient
       id="linearGradient3514">
      <stop
         style="stop-color:#000000;stop-opacity:1;"
         offset="0"
         id="stop3512" />
    </linearGradient>
  </defs>
  <path
     style="display:inline;opacity:1;fill:#8a916f;fill-opacity:1;stroke:#ffffff;stroke-width:5;stroke-linecap:butt;stroke-linejoin:bevel;stroke-dasharray:none;stroke-opacity:1;paint-order:markers stroke fill"
     d="M 39.56893,72.34193 C 28.947801,66.842222 20.325712,61.689288 20.325712,61.689288 V 71.68876 C 20.325712,77.459565 2.5,77.459562 2.5,72.34193 V 41.684858 10.976072 c 0,-5.7648696 17.825712,-5.7648693 17.825712,0 v 10.005402 c 0.05079,0 8.605807,-4.502431 19.135557,-10.005402 22.596653,-11.30142928 22.596653,-11.30142928 22.631391,0 v 10.005402 c -22.631391,0 -22.631391,0 -35.368048,20.353907 0,0 12.844318,20.353907 0,0 C 39.56893,61.689288 39.56893,61.689288 62.09266,61.689288 V 72.34193 c -0.03474,10.547385 -0.03474,10.547385 -22.52373,0 z"
     id="path7639" />
  <g
     aria-label="C"
     transform="matrix(1.2932735,0,0,0.77323164,-0.34758828,-2.4367821)"
     id="text755"
     style="font-weight:bold;font-size:89.0785px;font-family:'Noto Sans Mono CJK TC';-inkscape-font-specification:'Noto Sans Mono CJK TC Bold';display:inline;fill:#ed6900;stroke:#ffffff;stroke-width:4;stroke-dasharray:none;stroke-opacity:1">
    <path
       d="m 40.217029,90.770984 c 6.057338,0 11.758362,-2.583277 16.123208,-7.927987 l -7.482594,-7.927986 c -2.048805,2.850512 -4.453925,4.453925 -7.393515,4.453925 -6.235495,0 -11.580205,-5.96826 -11.580205,-22.893174 0,-16.568601 5.611946,-22.715018 10.956655,-22.715018 3.117748,0 5.077475,1.603413 7.304437,4.18669 l 7.482594,-8.195222 c -3.56314,-3.919454 -8.640614,-7.304437 -15.321501,-7.304437 -12.738226,0 -23.962117,10.333106 -23.962117,34.562458 0,24.31843 11.223891,33.760751 23.873038,33.760751 z"
       id="path10400"
       style="display:inline;stroke:#ffffff;stroke-width:4;stroke-dasharray:none;stroke-opacity:1" />
  </g>
</svg>
