<?xml version="1.0" encoding="UTF-8" standalone="no"?>
<!-- Created with Inkscape (http://www.inkscape.org/) -->

<svg
   width="100mm"
   height="100mm"
   viewBox="0 0 99.999999 100"
   version="1.1"
   id="svg5"
   sodipodi:docname="ck-logo-wit.svg"
   inkscape:export-filename="ck-logo-witwit.svg"
   inkscape:export-xdpi="186.66093"
   inkscape:export-ydpi="186.66093"
   inkscape:version="1.2.2 (b0a8486541, 2022-12-01)"
   xmlns:inkscape="http://www.inkscape.org/namespaces/inkscape"
   xmlns:sodipodi="http://sodipodi.sourceforge.net/DTD/sodipodi-0.dtd"
   xmlns:xlink="http://www.w3.org/1999/xlink"
   xmlns="http://www.w3.org/2000/svg"
   xmlns:svg="http://www.w3.org/2000/svg">
  <sodipodi:namedview
     id="namedview8"
     pagecolor="#ffffff"
     bordercolor="#000000"
     borderopacity="0.25"
     inkscape:showpageshadow="2"
     inkscape:pageopacity="0.0"
     inkscape:pagecheckerboard="0"
     inkscape:deskcolor="#d1d1d1"
     inkscape:document-units="mm"
     showgrid="false"
     inkscape:zoom="5.7060618"
     inkscape:cx="57.745607"
     inkscape:cy="78.425369"
     inkscape:window-width="1878"
     inkscape:window-height="1051"
     inkscape:window-x="0"
     inkscape:window-y="0"
     inkscape:window-maximized="1"
     inkscape:current-layer="g29003"
     showguides="true">
    <sodipodi:guide
       position="28.787603,100"
       orientation="0,-1"
       id="guide3538"
       inkscape:locked="false" />
    <sodipodi:guide
       position="33.032309,97.888574"
       orientation="0,-1"
       id="guide3540"
       inkscape:locked="false" />
    <sodipodi:guide
       position="32.852224,14.567092"
       orientation="0,-1"
       id="guide3542"
       inkscape:locked="false" />
    <sodipodi:guide
       position="20.6733,56.281244"
       orientation="1,0"
       id="guide3550"
       inkscape:locked="false" />
    <sodipodi:guide
       position="5.6394851,-55.348143"
       orientation="1,0"
       id="guide3552"
       inkscape:locked="false" />
    <sodipodi:guide
       position="19.938591,92.352014"
       orientation="0,-1"
       id="guide3596"
       inkscape:locked="false" />
    <sodipodi:guide
       position="38.099312,20.103653"
       orientation="0,-1"
       id="guide3598"
       inkscape:locked="false" />
    <sodipodi:guide
       position="0,-2.3960016"
       orientation="1,0"
       id="guide4713"
       inkscape:locked="false" />
    <sodipodi:guide
       position="27.072198,56.227836"
       orientation="0,-1"
       id="guide9909"
       inkscape:locked="false" />
    <sodipodi:guide
       position="2.0975883,28.522804"
       orientation="1,0"
       id="guide9942"
       inkscape:locked="false" />
    <sodipodi:guide
       position="11.410121,87.147219"
       orientation="1,0"
       id="guide9948"
       inkscape:locked="false" />
    <sodipodi:guide
       position="62.405509,94.621387"
       orientation="1,0"
       id="guide10613"
       inkscape:locked="false" />
  </sodipodi:namedview>
  <defs
     id="defs2">
    <linearGradient
       id="linearGradient6494"
       inkscape:swatch="solid">
      <stop
         style="stop-color:#000000;stop-opacity:1;"
         offset="0"
         id="stop6492" />
    </linearGradient>
    <linearGradient
       id="linearGradient3642"
       inkscape:swatch="solid">
      <stop
         style="stop-color:#ffce00;stop-opacity:1;"
         offset="0"
         id="stop3640" />
    </linearGradient>
    <linearGradient
       id="linearGradient3514"
       inkscape:swatch="solid">
      <stop
         style="stop-color:#000000;stop-opacity:1;"
         offset="0"
         id="stop3512" />
    </linearGradient>
    <clipPath
       clipPathUnits="userSpaceOnUse"
       id="clipPath15679-1">
      <path
         style="display:inline;fill:#002b22;fill-opacity:1;stroke-width:0.264583"
         d="M 91.333008,106.18907 V 87.364935 c 0,-6.159193 0,-6.159193 -10.317631,-6.159193 -10.81962,0 -10.81962,0 -10.81962,6.159193 v 12.617387 24.816168 25.17499 12.35326 c 0,6.30373 0,6.42333 10.81962,6.42333 10.317631,0 10.317631,-0.1196 10.317631,-6.42333 v -18.7477 c 0,0 20.513402,12.59543 36.671982,21.86574 5.43564,3.18569 5.43564,-3.03332 5.43564,-3.03332 v -12.43798 c 0,-6.45819 0,-6.45819 -5.43564,-6.45819 -36.671982,0.0637 -36.671982,-37.32622 0,-37.32622 5.43564,0 5.43564,0 5.43564,-6.206748 v -12.55758 c 0,0 -1e-5,-6.219 -5.6405,-3.099756 -16.09739,9.460037 -36.467122,21.864084 -36.467122,21.864084 z"
         id="path15681-2"
         mask="none" />
    </clipPath>
    <clipPath
       clipPathUnits="userSpaceOnUse"
       id="clipPath34930">
      <use
         x="0"
         y="0"
         xlink:href="#g34926"
         id="use34932" />
    </clipPath>
  </defs>
  <g
     aria-label="C"
     transform="matrix(1.2932735,0,0,0.77323164,5.9349497,-0.30995267)"
     id="text755"
     style="font-weight:bold;font-size:89.0785px;font-family:'Noto Sans Mono CJK TC';-inkscape-font-specification:'Noto Sans Mono CJK TC Bold';display:inline;fill:#0000ff;fill-opacity:1;stroke:#ffffff;stroke-width:5.00000003;stroke-dasharray:none;stroke-opacity:1"
     inkscape:export-filename="ck-logo-greys.svg"
     inkscape:export-xdpi="186.66093"
     inkscape:export-ydpi="186.66093">
    <g
       id="g29003"
       style="stroke:#ffffff;stroke-opacity:1">
      <rect
         style="display:inline;fill:#3465a4;fill-opacity:1;fill-rule:evenodd;stroke-width:0.313;stroke-dasharray:none"
         id="rect9904"
         width="100"
         height="100"
         x="2.6645353e-15"
         y="-1.0214052e-14"
         ry="2.2334118"
         transform="matrix(0.77323166,0,0,1.2932735,-4.5890909,0.40085358)" />
      <g
         id="g34928"
         clip-path="url(#clipPath34930)">
        <g
           inkscape:label="Clip"
           id="g34926">
          <path
             id="path10400"
             style="display:inline;fill:#ff00ff;fill-opacity:1;stroke:#ffffff;stroke-width:5;stroke-dasharray:none;stroke-opacity:1"
             d="m 41.484311,6.7852917 c -2.187411,0 -6.555655,3.6538333 -15.29187,10.9617453 -8.141928,7.11684 -14.79639,12.939964 -14.796393,12.939966 V 17.747037 c 0,-7.455544 -13.7834612,-7.455545 -13.7834612,0 V 57.46248 97.110422 c 0,6.618498 13.7834612,6.618468 13.7834612,-0.844754 V 83.333723 c 0,0 6.66692,6.66408 14.879505,13.776699 17.389184,13.640638 17.38917,13.640638 17.41603,0 v -6.635057 c -0.009,0.0015 5.166151,-2e-6 -0.02677,0.0053 l 1.1e-5,-2e-6 v 0 l 0.02676,-0.0053 c 0,0 9.129937,-3.323593 12.648658,-7.632231 L 48.857734,74.91488 c -2.048803,2.850509 -4.454214,4.454337 -7.393801,4.454337 -6.235489,0 -11.580185,-5.434337 -11.580185,-22.359234 0,-16.568585 5.612139,-23.249434 10.956842,-23.249434 3.117745,0 5.077336,1.603736 7.304296,4.18701 l 7.482907,-8.195579 c -2.934277,-3.227704 -11.93621,-6.998668 -11.93621,-6.998622 v -4.6e-5 -5.006275 C 43.678153,10.439125 43.671723,6.7852917 41.484311,6.7852917 Z m 2.166915,83.6980923 c 0,0 0.0136,-0.0027 0,0 z"
             sodipodi:nodetypes="sccsscssccccccccccssscccccscc" />
        </g>
      </g>
    </g>
  </g>
  <g
     id="g10567"
     transform="translate(22.268605,24.394634)"
     style="display:none">
    <rect
       style="fill:#0000ff;fill-rule:evenodd;stroke-width:0.264583"
       id="rect10429"
       width="15.865327"
       height="20.353907"
       x="24.281389"
       y="-0.97636986"
       ry="2.2334118" />
    <rect
       style="fill:#0000ff;fill-rule:evenodd;stroke-width:0.264583"
       id="rect10431"
       width="15.865327"
       height="20.353907"
       x="24.281389"
       y="19.377537"
       ry="2.2334118" />
    <rect
       style="fill:#0000ff;fill-rule:evenodd;stroke-width:0.264583"
       id="rect10433"
       width="12.815304"
       height="15.770276"
       x="17.40653"
       y="39.731438"
       ry="2.2334118" />
    <rect
       style="fill:#0000ff;fill-rule:evenodd;stroke-width:0.264583"
       id="rect10435"
       width="12.815304"
       height="15.770276"
       x="17.377953"
       y="-16.746645"
       ry="2.2334118" />
    <rect
       style="fill:#0000ff;fill-rule:evenodd;stroke-width:0.264583"
       id="rect10437"
       width="8.539053"
       height="10.005404"
       x="31.607662"
       y="-10.981774"
       ry="2.2334118" />
    <rect
       style="fill:#0000ff;fill-rule:evenodd;stroke-width:0.264583"
       id="rect10441"
       width="8.539053"
       height="10.005404"
       x="31.463007"
       y="39.731445"
       ry="2.2334118" />
    <rect
       style="fill:#e9b96e;fill-rule:evenodd;stroke-width:0.264583"
       id="rect10443"
       width="9.7802248"
       height="5.7648745"
       x="30.221834"
       y="49.736851"
       ry="2.2334118" />
    <rect
       style="fill:#e9b96e;fill-rule:evenodd;stroke-width:0.264583"
       id="rect10445"
       width="9.7802248"
       height="5.7648745"
       x="30.366491"
       y="-16.746649"
       ry="2.2334118" />
    <rect
       style="fill:#e9b96e;fill-rule:evenodd;stroke-width:0.449429"
       id="rect10687"
       width="29.383011"
       height="5.5365615"
       x="10.763704"
       y="-22.283209"
       ry="2.1449594" />
    <rect
       style="fill:#e9b96e;fill-rule:evenodd;stroke-width:0.449429"
       id="rect10689"
       width="29.383011"
       height="5.5365615"
       x="10.583619"
       y="55.501713"
       ry="2.1449594" />
  </g>
</svg>
