<?xml version="1.0" encoding="UTF-8" standalone="no"?>
<!-- Created with Inkscape (http://www.inkscape.org/) -->

<svg
   width="74.23587mm"
   height="82.752472mm"
   viewBox="0 0 74.23587 82.752472"
   version="1.1"
   id="svg5"
   sodipodi:docname="ck-logo-dark.svg"
   inkscape:export-filename="ck-logo-8.svg"
   inkscape:export-xdpi="186.66093"
   inkscape:export-ydpi="186.66093"
   inkscape:version="1.2.2 (b0a8486541, 2022-12-01)"
   xmlns:inkscape="http://www.inkscape.org/namespaces/inkscape"
   xmlns:sodipodi="http://sodipodi.sourceforge.net/DTD/sodipodi-0.dtd"
   xmlns="http://www.w3.org/2000/svg"
   xmlns:svg="http://www.w3.org/2000/svg">
  <sodipodi:namedview
     id="namedview8"
     pagecolor="#ffffff"
     bordercolor="#000000"
     borderopacity="0.25"
     inkscape:showpageshadow="2"
     inkscape:pageopacity="0.0"
     inkscape:pagecheckerboard="0"
     inkscape:deskcolor="#d1d1d1"
     inkscape:document-units="mm"
     showgrid="false"
     inkscape:zoom="1.4265155"
     inkscape:cx="188.22088"
     inkscape:cy="43.112046"
     inkscape:window-width="1878"
     inkscape:window-height="1051"
     inkscape:window-x="0"
     inkscape:window-y="0"
     inkscape:window-maximized="1"
     inkscape:current-layer="svg5"
     showguides="true">
    <sodipodi:guide
       position="28.440015,85.189255"
       orientation="0,-1"
       id="guide3538"
       inkscape:locked="false" />
    <sodipodi:guide
       position="32.684721,83.077829"
       orientation="0,-1"
       id="guide3540"
       inkscape:locked="false" />
    <sodipodi:guide
       position="32.504636,-0.24365399"
       orientation="0,-1"
       id="guide3542"
       inkscape:locked="false" />
    <sodipodi:guide
       position="20.325712,41.470499"
       orientation="1,0"
       id="guide3550"
       inkscape:locked="false" />
    <sodipodi:guide
       position="5.2918969,-70.15889"
       orientation="1,0"
       id="guide3552"
       inkscape:locked="false" />
    <sodipodi:guide
       position="19.591003,77.541269"
       orientation="0,-1"
       id="guide3596"
       inkscape:locked="false" />
    <sodipodi:guide
       position="37.751724,5.2929071"
       orientation="0,-1"
       id="guide3598"
       inkscape:locked="false" />
    <sodipodi:guide
       position="-0.34758828,-17.206748"
       orientation="1,0"
       id="guide4713"
       inkscape:locked="false" />
    <sodipodi:guide
       position="26.72461,41.417091"
       orientation="0,-1"
       id="guide9909"
       inkscape:locked="false" />
    <sodipodi:guide
       position="1.75,13.712058"
       orientation="1,0"
       id="guide9942"
       inkscape:locked="false" />
    <sodipodi:guide
       position="11.062533,72.336474"
       orientation="1,0"
       id="guide9948"
       inkscape:locked="false" />
    <sodipodi:guide
       position="62.057921,79.810642"
       orientation="1,0"
       id="guide10613"
       inkscape:locked="false" />
  </sodipodi:namedview>
  <defs
     id="defs2">
    <linearGradient
       id="linearGradient6494"
       inkscape:swatch="solid">
      <stop
         style="stop-color:#000000;stop-opacity:1;"
         offset="0"
         id="stop6492" />
    </linearGradient>
    <linearGradient
       id="linearGradient3642"
       inkscape:swatch="solid">
      <stop
         style="stop-color:#ffce00;stop-opacity:1;"
         offset="0"
         id="stop3640" />
    </linearGradient>
    <linearGradient
       id="linearGradient3514"
       inkscape:swatch="solid">
      <stop
         style="stop-color:#000000;stop-opacity:1;"
         offset="0"
         id="stop3512" />
    </linearGradient>
  </defs>
  <g
     aria-label="C"
     transform="matrix(1.2932735,0,0,0.77323164,-0.34758828,-2.4367819)"
     id="text755"
     style="font-weight:bold;font-size:89.0785px;font-family:'Noto Sans Mono CJK TC';-inkscape-font-specification:'Noto Sans Mono CJK TC Bold';display:inline;fill:#ed6900;stroke:#ffffff;stroke-width:4;stroke-dasharray:none;stroke-opacity:1">
    <rect
       style="font-weight:bold;font-size:89.0785px;font-family:'Noto Sans Mono CJK TC';-inkscape-font-specification:'Noto Sans Mono CJK TC Bold';display:none;fill:#de87aa;fill-rule:evenodd;stroke:#ffffff;stroke-width:1.05833;stroke-dasharray:none;stroke-opacity:1"
       id="rect2104"
       width="83.32431"
       height="140.08421"
       x="-9.7703085"
       y="-9.0819578"
       rx="2.9408891"
       ry="4.6156898" />
    <g
       id="path7639"
       transform="matrix(0.77323166,0,0,1.2932735,0.26876626,3.1514255)">
      <path
         style="color:#000000;-inkscape-font-specification:'Noto Sans Mono CJK TC Bold';display:inline;fill:#11002b;stroke:none;stroke-linejoin:bevel;-inkscape-stroke:none;paint-order:markers stroke fill"
         d="m 59.238281,0 c -2.246713,0 -4.455934,0.87939732 -7.728515,2.3339844 -3.272582,1.454587 -7.516854,3.5808937 -13.166016,6.40625 l -0.04102,0.019531 c -5.266617,2.7523966 -10.039276,5.2551086 -13.5,7.0683596 -0.833525,0.436727 -1.306743,0.684527 -1.976562,1.035156 v -5.886718 c 0,-1.3648038 -0.592288,-2.659554 -1.410156,-3.566407 C 20.598147,6.5033033 19.598693,5.8977816 18.53125,5.4375 16.396365,4.5169368 13.90983,4.1523438 11.412109,4.1523437 8.9143885,4.1523437 6.4298072,4.5169368 4.2949219,5.4375 3.2274792,5.8977816 2.2280245,6.5033032 1.4101562,7.4101562 0.59228798,8.3170093 0,9.6117594 0,10.976563 v 30.708984 30.65625 c 0,1.365371 0.67244043,2.635141 1.515625,3.46289 0.8431846,0.82775 1.8324571,1.348239 2.8886719,1.746094 2.1124295,0.795711 4.5720847,1.092361 7.0546871,1.046875 2.482603,-0.04549 4.957161,-0.432259 7.083985,-1.363281 1.063412,-0.465511 2.061339,-1.073049 2.876953,-1.980469 0.815614,-0.90742 1.40625,-2.19957 1.40625,-3.564453 v -5.664062 c 3.363496,1.947119 8.460948,4.843686 15.59375,8.537109 l 0.08789,0.04297 c 10.094577,4.734378 15.424236,7.405929 19.400391,8.03125 0.994039,0.15633 1.968434,0.185611 2.966797,-0.111328 0.998363,-0.29694 1.942833,-1.01666 2.494141,-1.851563 1.102615,-1.669805 1.124789,-3.356887 1.1875,-5.355469 l 0.002,-0.07813 V 61.689453 l -2.5,-2.5 -4.7e-5,-35.707031 2.5,-2.5 V 7.8808594 l -0.002,-0.072266 C 64.501622,5.9216929 64.439279,4.3652435 63.726562,2.8066406 63.013846,1.2480377 61.029721,0 59.238281,0 Z m -0.04297,5.0136719 c 0.11206,0.2971524 0.31587,1.3134181 0.363282,2.9394531 v 10.585937 l -6e-6,45.591797 v 11.03125 c -0.05149,1.640908 -0.310323,2.448983 -0.335938,2.560547 -0.09784,0.0085 -0.158562,0.03445 -0.539062,-0.02539 C 56.526859,77.358081 50.737796,74.816304 40.6875,70.103516 30.16584,64.653079 21.607422,59.542969 21.607422,59.542969 l -3.78125,2.146484 v 10 c 0,0.07782 0.03423,0.0455 -0.125,0.222656 -0.159233,0.177157 -0.556309,0.476142 -1.164063,0.742188 -1.215507,0.532091 -3.196082,0.909148 -5.169921,0.945312 C 9.3933484,73.635774 7.3959175,73.334374 6.1660156,72.871094 5.5510647,72.639454 5.1492402,72.36558 5.0175781,72.236328 4.885916,72.107076 5,72.255831 5,72.341797 V 41.685547 10.976563 c 0,-0.07641 -0.033931,-0.04274 0.1230469,-0.216797 0.1569784,-0.174058 0.5486207,-0.470144 1.1523437,-0.730469 1.207446,-0.5206512 3.1779978,-0.8769533 5.1367184,-0.8769532 1.958721,0 3.931226,0.356302 5.138672,0.8769532 0.603723,0.260325 0.995366,0.556411 1.152344,0.730469 0.156978,0.174057 0.123047,0.140385 0.123047,0.216797 v 10.005859 l 2.5,2.5 c 1.98e-4,0 0.623208,-0.07682 0.71875,-0.105469 0.09554,-0.02865 0.14113,-0.04654 0.177734,-0.06055 0.07321,-0.02802 0.101863,-0.04159 0.126953,-0.05273 0.05018,-0.02228 0.07002,-0.03246 0.0918,-0.04297 0.04355,-0.02102 0.07837,-0.03802 0.119141,-0.05859 0.08154,-0.04115 0.183331,-0.09537 0.316406,-0.164062 0.266151,-0.13738 0.648349,-0.334992 1.136719,-0.589844 0.976739,-0.509703 2.380443,-1.243491 4.111328,-2.150391 3.45164,-1.808491 8.210251,-4.303867 13.455078,-7.044921 5.649142,-2.825347 9.87705,-4.9378771 12.960938,-6.3085941 3.060741,-1.3604291 5.054902,-1.8826708 5.654296,-1.890625 z"
         id="path9968"
         sodipodi:nodetypes="ssccscssssssscssssssscccsssccccccccssscccccscccssssssccsssssssccsssscssscsss" />
      <path
         style="color:#000000;-inkscape-font-specification:'Noto Sans Mono CJK TC Bold';display:none;fill:#de87aa;stroke:none;stroke-width:5;stroke-linejoin:bevel;-inkscape-stroke:none;paint-order:markers stroke fill"
         d="m 59.237727,2.5001058 c -2.828921,0 -8.478255,2.8252596 -19.77657,8.4759682 C 28.931417,16.47904 20.376681,20.981665 20.325891,20.981665 V 10.976074 c 0,-5.764863 -17.8257852,-5.7648633 -17.8257852,0 v 30.708721 30.657043 c 0,5.117627 17.8257852,5.117609 17.8257852,-0.65319 v -9.99939 c 0,0 8.622151,5.152878 19.243269,10.65258 20.188832,9.468606 22.252223,10.430786 22.48855,2.899048 V 61.689258 C 39.571375,61.689252 39.561663,61.678084 26.724467,41.335462 39.454095,20.992788 39.463718,20.981671 62.05771,20.981665 V 7.8811728 C 61.953232,4.2980103 61.490423,2.5001058 59.237727,2.5001058 Z"
         id="path9970" />
      <path
         style="color:#000000;-inkscape-font-specification:'Noto Sans Mono CJK TC Bold';display:none;fill:#000000;stroke:none;stroke-linejoin:bevel;-inkscape-stroke:none;paint-order:markers stroke fill"
         d="m 59.238281,0 c -2.246713,0 -4.455934,0.87939732 -7.728515,2.3339844 -3.272582,1.454587 -7.516854,3.5808937 -13.166016,6.40625 l -0.04102,0.019531 c -5.266617,2.7523966 -10.039276,5.2551086 -13.5,7.0683596 -0.833525,0.436727 -1.306743,0.684527 -1.976562,1.035156 v -5.886718 c 0,-1.3648038 -0.592288,-2.659554 -1.410156,-3.566407 C 20.598147,6.5033033 19.598693,5.8977816 18.53125,5.4375 16.396365,4.5169368 13.90983,4.1523438 11.412109,4.1523437 8.9143885,4.1523437 6.4298072,4.5169368 4.2949219,5.4375 3.2274792,5.8977816 2.2280245,6.5033032 1.4101562,7.4101562 0.59228798,8.3170093 0,9.6117594 0,10.976563 v 30.708984 30.65625 c 0,1.365371 0.67244043,2.635141 1.515625,3.46289 0.8431846,0.82775 1.8324571,1.348239 2.8886719,1.746094 2.1124295,0.795711 4.5720847,1.092361 7.0546871,1.046875 2.482603,-0.04549 4.957161,-0.432259 7.083985,-1.363281 1.063412,-0.465511 2.061339,-1.073049 2.876953,-1.980469 0.815614,-0.90742 1.40625,-2.19957 1.40625,-3.564453 v -5.664062 c 3.363496,1.947119 8.460948,4.843686 15.59375,8.537109 l 0.08789,0.04297 c 10.094577,4.734378 15.424236,7.405929 19.400391,8.03125 0.994039,0.15633 1.968434,0.185611 2.966797,-0.111328 0.998363,-0.29694 1.942833,-1.01666 2.494141,-1.851563 1.102615,-1.669805 1.124789,-3.356887 1.1875,-5.355469 l 0.002,-0.07813 V 61.689453 l -2.5,-2.5 -4.7e-5,-35.707031 2.5,-2.5 V 7.8808594 l -0.002,-0.072266 C 64.501622,5.9216929 64.439279,4.3652435 63.726562,2.8066406 63.013846,1.2480377 61.029721,0 59.238281,0 Z m -0.04297,5.0136719 c 0.11206,0.2971524 0.31587,1.3134181 0.363282,2.9394531 v 10.585937 l -6e-6,45.591797 v 11.03125 c -0.05149,1.640908 -0.310323,2.448983 -0.335938,2.560547 -0.09784,0.0085 -0.158562,0.03445 -0.539062,-0.02539 C 56.526859,77.358081 50.737796,74.816304 40.6875,70.103516 30.16584,64.653079 21.607422,59.542969 21.607422,59.542969 l -3.78125,2.146484 v 10 c 0,0.07782 0.03423,0.0455 -0.125,0.222656 -0.159233,0.177157 -0.556309,0.476142 -1.164063,0.742188 -1.215507,0.532091 -3.196082,0.909148 -5.169921,0.945312 C 9.3933484,73.635774 7.3959175,73.334374 6.1660156,72.871094 5.5510647,72.639454 5.1492402,72.36558 5.0175781,72.236328 4.885916,72.107076 5,72.255831 5,72.341797 V 41.685547 10.976563 c 0,-0.07641 -0.033931,-0.04274 0.1230469,-0.216797 0.1569784,-0.174058 0.5486207,-0.470144 1.1523437,-0.730469 1.207446,-0.5206512 3.1779978,-0.8769533 5.1367184,-0.8769532 1.958721,0 3.931226,0.356302 5.138672,0.8769532 0.603723,0.260325 0.995366,0.556411 1.152344,0.730469 0.156978,0.174057 0.123047,0.140385 0.123047,0.216797 v 10.005859 l 2.5,2.5 c 1.98e-4,0 0.623208,-0.07682 0.71875,-0.105469 0.09554,-0.02865 0.14113,-0.04654 0.177734,-0.06055 0.07321,-0.02802 0.101863,-0.04159 0.126953,-0.05273 0.05018,-0.02228 0.07002,-0.03246 0.0918,-0.04297 0.04355,-0.02102 0.07837,-0.03802 0.119141,-0.05859 0.08154,-0.04115 0.183331,-0.09537 0.316406,-0.164062 0.266151,-0.13738 0.648349,-0.334992 1.136719,-0.589844 0.976739,-0.509703 2.380443,-1.243491 4.111328,-2.150391 3.45164,-1.808491 8.210251,-4.303867 13.455078,-7.044921 5.649142,-2.825347 9.87705,-4.9378771 12.960938,-6.3085941 3.060741,-1.3604291 5.054902,-1.8826708 5.654296,-1.890625 z"
         id="path9972"
         sodipodi:nodetypes="ssccscssssssscssssssscccsssccccccccssscccccscccssssssccsssssssccsssscssscsss" />
    </g>
    <g
       id="path10400"
       style="display:none;stroke:none">
      <path
         style="color:#000000;-inkscape-font-specification:'Noto Sans Mono CJK TC Bold';display:inline;fill:#000000;fill-opacity:1;stroke:none;-inkscape-stroke:none"
         d="m 42.351562,24.447266 c -12.738213,0 -23.961912,8.33388 -23.961912,32.563207 0,24.318406 11.224888,31.761011 23.874022,31.761011 2.786279,0 5.495789,1.451465 8.03592,0.340958 V 75.700644 c -1.914827,2.355324 -4.1337,5.668497 -6.789826,5.668497 -6.235489,0 -11.579997,-7.968425 -11.579997,-24.893322 0,-16.568584 5.612247,-24.7141 10.95695,-24.7141 3.117745,0 3.140236,-0.785861 5.367196,1.797413 v 0 l -1.63e-4,-7.962972 c -2.339447,-1.082344 -2.94014,-1.148894 -5.90219,-1.148894 z"
         id="path1736"
         sodipodi:nodetypes="sssccssscccs" />
      <path
         style="color:#000000;-inkscape-font-specification:'Noto Sans Mono CJK TC Bold';display:inline;fill:#de87aa;fill-opacity:1;stroke:none;-inkscape-stroke:none"
         d="m 42.351562,20.447266 c -6.909907,0 -13.573664,2.891457 -18.332031,8.96289 -4.758366,6.071433 -7.628906,15.176129 -7.628906,27.59961 0,12.466888 2.873586,21.393727 7.640625,27.261718 4.767039,5.867992 11.410208,8.5 18.232422,8.5 3.048636,0 6.040696,-0.60328 8.83789,-1.826172 C 53.881713,89.544677 50.299592,56.609483 48.748047,74.439453 35.081826,78.89089 32.342798,20.447913 48.675777,39.253906 50.299592,56.609483 52.513639,23.315769 50.187515,21.815484 47.61022,20.6231 45.613386,20.447266 42.351558,20.447266 Z m 0,4 c 2.200334,0 4.138917,0.476958 5.947266,1.166015 v 7.976563 c -1.559279,-1.070382 -3.287095,-1.828125 -5.412109,-1.828125 -3.438988,0 -6.888662,2.093133 -9.216797,6.148437 -2.328136,4.055305 -3.740235,10.056309 -3.740235,18.566406 10e-7,8.672966 1.329935,14.717783 3.726563,18.804688 2.396628,4.086905 6.097672,6.087891 9.853516,6.087891 1.739778,0 3.334047,-0.523579 4.789062,-1.365235 v 7.65625 c -1.934852,0.686263 -3.940248,1.111328 -6.035156,1.111328 -5.826908,0 -11.121628,-2.088721 -15.128906,-7.021484 -4.007278,-4.932763 -6.744141,-12.888741 -6.744141,-24.740234 0,-11.805822 2.73911,-19.980232 6.777344,-25.132813 4.038234,-5.15258 9.355301,-7.429687 15.183593,-7.429687 z"
         id="path1738"
         sodipodi:nodetypes="sssssccccssccsssssccsssssc" />
    </g>
  </g>
  <path
     id="rect10522"
     style="fill:#0000ff;fill-rule:evenodd;stroke-width:0.26883"
     d="m 59.004142,23.482422 h 4.061073 c 2.107069,0 3.803374,1.643279 3.803374,3.684483 v 28.336951 c 0,2.041204 -1.696305,3.684483 -3.803374,3.684483 h -4.061073 c -2.107069,0 -3.803374,-1.643279 -3.803374,-3.684483 V 27.166905 c 0,-2.041204 1.696305,-3.684483 3.803374,-3.684483 z" />
</svg>
