<?xml version="1.0" encoding="UTF-8" standalone="no"?>
<svg
   viewBox="0 0 185753.59 262144"
   version="1.1"
   id="svg14"
   sodipodi:docname="HTML5_logo_and_wordmark (1).svg"
   width="185753.59"
   height="262144"
   xmlns:inkscape="http://www.inkscape.org/namespaces/inkscape"
   xmlns:sodipodi="http://sodipodi.sourceforge.net/DTD/sodipodi-0.dtd"
   xmlns="http://www.w3.org/2000/svg"
   xmlns:svg="http://www.w3.org/2000/svg">
  <defs
     id="defs18" />
  <sodipodi:namedview
     id="namedview16"
     pagecolor="#ffffff"
     bordercolor="#000000"
     borderopacity="0.25"
     inkscape:showpageshadow="2"
     inkscape:pageopacity="0.0"
     inkscape:pagecheckerboard="0"
     inkscape:deskcolor="#d1d1d1"
     showgrid="false" />
  <title
     id="title2">HTML5 Logo</title>
  <path
     d="m -38086.799,0 h 23 v 22.8 h 21.2 V 0 h 23 v 69 h -23 V 46 h -21 v 23 h -23.2 m 97.6,-46 h -20.3 V 0 h 63.7 v 23 h -20.4 v 46 h -23 m 53.5,-69 h 24.1 l 14.8,24.3 14.8,-24.3 h 24.1 v 69 h -23 V 34.8 l -16.1,24.8 -16.1,-24.8 V 69 h -22.6 m 89.2,-69 h 23 v 46.2 h 32.6 V 69 h -55.6"
     id="path4" />
  <path
     fill="#e44d26"
     d="m -38087.599,471 -33,-370.4 h 362.8 l -33,370.2 -148.7,41.2"
     id="path6" />
  <path
     fill="#f16529"
     d="M -37939.199,480.5 V 131 h 148.3 l -28.3,316"
     id="path8" />
  <path
     fill="#ebebeb"
     d="m -38053.199,176.3 h 114 v 45.4 h -64.2 l 4.2,46.5 h 60 v 45.3 h -101.6 m 2,22.8 h 45.6 l 3.2,36.3 50.8,13.6 v 47.4 l -93.2,-26"
     id="path10" />
  <path
     fill="#ffffff"
     d="m -37825.599,176.3 h -113.8 v 45.4 h 109.6 m -4.1,46.5 h -105.5 v 45.4 h 56 l -5.3,59 -50.7,13.6 v 47.2 l 93,-25.8"
     id="path12" />
</svg>
